<svg width="24" height="24" viewBox="0 0 24 24" fill="none" xmlns="http://www.w3.org/2000/svg">
<path d="M18.44 3.06006H5.56C4.89752 3.06191 4.26271 3.32589 3.79427 3.79433C3.32583 4.26277 3.06184 4.89759 3.06 5.56006V18.4401C3.06184 19.1025 3.32583 19.7373 3.79427 20.2058C4.26271 20.6742 4.89752 20.9382 5.56 20.9401H18.44C19.103 20.9401 19.7389 20.6767 20.2078 20.2078C20.6766 19.739 20.94 19.1031 20.94 18.4401V5.56006C20.94 4.89702 20.6766 4.26113 20.2078 3.79229C19.7389 3.32345 19.103 3.06006 18.44 3.06006ZM19.94 18.4401C19.9374 18.8371 19.7785 19.2171 19.4978 19.4978C19.217 19.7786 18.837 19.9374 18.44 19.9401H5.56C5.16298 19.9374 4.78297 19.7786 4.50223 19.4978C4.2215 19.2171 4.06262 18.8371 4.06 18.4401V5.56006C4.06262 5.16304 4.2215 4.78303 4.50223 4.50229C4.78297 4.22156 5.16298 4.06268 5.56 4.06006H18.44C18.837 4.06268 19.217 4.22156 19.4978 4.50229C19.7785 4.78303 19.9374 5.16304 19.94 5.56006V18.4401Z" fill="white"/>
<path d="M6.37601 10.748C6.37601 10.4828 6.48136 10.2285 6.6689 10.0409C6.85644 9.8534 7.11079 9.74805 7.37601 9.74805C7.64122 9.74805 7.89558 9.8534 8.08311 10.0409C8.27065 10.2285 8.37601 10.4828 8.37601 10.748V17.248C8.37601 17.5133 8.27065 17.7676 8.08311 17.9552C7.89558 18.1427 7.64122 18.248 7.37601 18.248C7.11079 18.248 6.85644 18.1427 6.6689 17.9552C6.48136 17.7676 6.37601 17.5133 6.37601 17.248V10.748Z" fill="white"/>
<path d="M7.37601 7.74414C7.92829 7.74414 8.37601 7.29643 8.37601 6.74414C8.37601 6.19186 7.92829 5.74414 7.37601 5.74414C6.82372 5.74414 6.37601 6.19186 6.37601 6.74414C6.37601 7.29643 6.82372 7.74414 7.37601 7.74414Z" fill="white"/>
<path d="M17.62 13.3699V17.2499C17.62 17.5151 17.5146 17.7694 17.3271 17.957C17.1396 18.1445 16.8852 18.2499 16.62 18.2499C16.3548 18.2499 16.1004 18.1445 15.9129 17.957C15.7254 17.7694 15.62 17.5151 15.62 17.2499V13.3699C15.62 12.9415 15.4498 12.5308 15.147 12.2279C14.8441 11.925 14.4333 11.7549 14.005 11.7549C13.5767 11.7549 13.1659 11.925 12.863 12.2279C12.5602 12.5308 12.39 12.9415 12.39 13.3699V17.2499C12.39 17.5151 12.2846 17.7694 12.0971 17.957C11.9096 18.1445 11.6552 18.2499 11.39 18.2499C11.1248 18.2499 10.8704 18.1445 10.6829 17.957C10.4954 17.7694 10.39 17.5151 10.39 17.2499V10.7499C10.3941 10.4859 10.5008 10.234 10.6875 10.0473C10.8741 9.86067 11.1261 9.75399 11.39 9.74986C11.5594 9.74523 11.7269 9.78645 11.8747 9.86919C12.0226 9.95192 12.1453 10.0731 12.23 10.2199C12.7799 9.90822 13.4019 9.7464 14.0339 9.75059C14.666 9.75478 15.2858 9.92483 15.8315 10.2437C16.3772 10.5626 16.8296 11.0192 17.1434 11.5678C17.4573 12.1164 17.6216 12.7378 17.62 13.3699Z" fill="white"/>
</svg>
