<svg width="24" height="24" viewBox="0 0 24 24" fill="none" xmlns="http://www.w3.org/2000/svg">
<g clip-path="url(#clip0_18_57)">
<path d="M0.100313 11.892C0.0996563 13.9879 0.649687 16.034 1.69537 17.8376L0 24L6.33478 22.3464C8.08022 23.2938 10.0454 23.7934 12.0451 23.7941H12.0502C18.636 23.7941 23.9972 18.4585 24 11.9015C24.0011 8.72373 22.7591 5.73552 20.5031 3.48762C18.2468 1.24001 15.2468 0.00130665 12.0502 0C5.46337 0 0.102938 5.33485 0.100313 11.892ZM3.87291 17.527L3.63637 17.1532C2.64206 15.5792 2.11725 13.7604 2.118 11.8927C2.12006 6.4426 6.57544 2.0085 12.054 2.0085C14.7071 2.00962 17.2005 3.03926 19.0759 4.90739C20.9512 6.7757 21.9831 9.25926 21.9824 11.9007C21.98 17.3509 17.5245 21.7855 12.0502 21.7855H12.0463C10.2638 21.7846 8.51569 21.308 6.99113 20.4075L6.62831 20.1933L2.86912 21.1745L3.87291 17.527Z" fill="url(#paint0_linear_18_57)"/>
<path d="M9.06357 6.89771C8.83988 6.4044 8.60448 6.39445 8.39176 6.3858C8.21757 6.37836 8.01844 6.37892 7.81951 6.37892C7.62038 6.37892 7.29685 6.45324 7.02338 6.74952C6.74963 7.04608 5.97826 7.76273 5.97826 9.22031C5.97826 10.678 7.04823 12.0866 7.19738 12.2845C7.34673 12.482 9.26297 15.5689 12.2978 16.7564C14.8201 17.7433 15.3334 17.547 15.8808 17.4975C16.4283 17.4482 17.6474 16.7811 17.8961 16.0892C18.145 15.3975 18.145 14.8046 18.0704 14.6807C17.9958 14.5572 17.7967 14.4831 17.4981 14.335C17.1994 14.1868 15.7314 13.4701 15.4578 13.3712C15.184 13.2724 14.985 13.2231 14.7859 13.5198C14.5868 13.8159 14.015 14.4831 13.8407 14.6807C13.6666 14.8787 13.4923 14.9034 13.1938 14.7552C12.895 14.6065 11.9334 14.2941 10.7926 13.2849C9.90497 12.4996 9.30572 11.5298 9.13154 11.2331C8.95735 10.937 9.11288 10.7764 9.2626 10.6288C9.39676 10.496 9.56129 10.2828 9.71072 10.1099C9.8596 9.93687 9.90929 9.81343 10.0089 9.61585C10.1085 9.41808 10.0586 9.24506 9.9841 9.09687C9.90929 8.94868 9.32907 7.48347 9.06357 6.89771Z" fill="white"/>
</g>
<defs>
<linearGradient id="paint0_linear_18_57" x1="1200" y1="2400" x2="1200" y2="0" gradientUnits="userSpaceOnUse">
<stop stop-color="#F9F9F9"/>
<stop offset="1" stop-color="white"/>
</linearGradient>
<clipPath id="clip0_18_57">
<rect width="24" height="24" fill="white"/>
</clipPath>
</defs>
</svg>
